<svg width="40" height="40" fill="none" xmlns="http://www.w3.org/2000/svg"><path d="M34.912 13.842a10.881 10.881 0 0 0-.699-3.694 7.682 7.682 0 0 0-4.388-4.388 11.01 11.01 0 0 0-3.643-.7c-1.604-.072-2.112-.092-6.182-.092s-4.591 0-6.183.092a11.01 11.01 0 0 0-3.642.7 7.678 7.678 0 0 0-4.388 4.388 10.923 10.923 0 0 0-.699 3.642c-.071 1.605-.093 2.113-.093 6.183s0 4.59.093 6.184c.025 1.246.26 2.476.699 3.645a7.683 7.683 0 0 0 4.39 4.386c1.162.456 2.394.71 3.642.75 1.604.072 2.113.094 6.183.094s4.591 0 6.183-.094a10.984 10.984 0 0 0 3.643-.698 7.69 7.69 0 0 0 4.389-4.388c.438-1.167.673-2.397.698-3.645.072-1.604.093-2.112.093-6.184-.003-4.07-.003-4.586-.096-6.181ZM19.99 27.67a7.703 7.703 0 0 1-7.705-7.705 7.703 7.703 0 0 1 13.153-5.448A7.705 7.705 0 0 1 19.99 27.67Zm8.012-13.898a1.795 1.795 0 1 1-.003-3.59 1.795 1.795 0 0 1 .003 3.59Z" fill="#fff"/><path d="M19.99 24.97a5.005 5.005 0 1 0 0-10.01 5.005 5.005 0 0 0 0 10.01Z" fill="#fff"/></svg>