<svg width="68" height="68" fill="none" xmlns="http://www.w3.org/2000/svg"><path d="M9.669 26.058a4.33 4.33 0 0 1-.85-3.586C10.758 13.148 21.356 6.375 34 6.375s23.242 6.773 25.181 16.097a4.25 4.25 0 0 1-4.143 5.153H12.962a4.303 4.303 0 0 1-3.294-1.567Zm50.097 14.476-9.828 3.932-9.829-3.932a2.072 2.072 0 0 0-1.593 0l-9.828 3.932-9.829-3.932a2.072 2.072 0 0 0-1.593 0L6.64 44.784a2.125 2.125 0 0 0 .796 4.091c.274-.001.544-.056.797-.16l2.391-.956v1.116A10.625 10.625 0 0 0 21.25 59.5h25.5a10.625 10.625 0 0 0 10.625-10.625v-2.816l3.984-1.593a2.125 2.125 0 0 0-1.593-3.932Zm1.859-8.659H6.375a2.125 2.125 0 0 0 0 4.25h55.25a2.125 2.125 0 0 0 0-4.25Z" fill="#fff"/></svg>