<svg width="40" height="40" fill="none" xmlns="http://www.w3.org/2000/svg"><path d="m3.34 36.667 2.254-8.28A16.59 16.59 0 0 1 3.334 20c0-9.205 7.461-16.666 16.666-16.666S36.667 10.795 36.667 20 29.205 36.667 20 36.667a16.59 16.59 0 0 1-8.383-2.259L3.34 36.667ZM13.985 12.18a1.6 1.6 0 0 0-.618.167c-.18.102-.346.23-.49.38-.2.188-.314.351-.435.51a4.548 4.548 0 0 0-.942 2.796c.004.817.217 1.612.55 2.355.682 1.504 1.803 3.095 3.285 4.57.357.356.705.712 1.08 1.044a15.746 15.746 0 0 0 6.4 3.41l.948.145c.309.017.617-.007.927-.022.486-.025.96-.156 1.388-.385a8.07 8.07 0 0 0 .639-.366s.072-.047.208-.15c.225-.167.363-.285.55-.48.138-.144.258-.312.35-.504.13-.271.26-.79.314-1.221.04-.33.028-.51.023-.622-.007-.178-.155-.363-.317-.442l-.97-.435s-1.45-.631-2.335-1.035a.83.83 0 0 0-.295-.068.802.802 0 0 0-.63.211v-.003c-.008 0-.12.095-1.325 1.555a.583.583 0 0 1-.613.217 2.358 2.358 0 0 1-.319-.11c-.206-.087-.278-.12-.42-.182l-.008-.003a10.019 10.019 0 0 1-2.616-1.667c-.21-.183-.405-.383-.605-.576a10.494 10.494 0 0 1-1.7-2.114l-.099-.158a1.54 1.54 0 0 1-.17-.342c-.063-.245.102-.442.102-.442s.405-.443.593-.683c.157-.2.303-.407.439-.622.196-.316.258-.641.155-.893-.467-1.14-.95-2.275-1.447-3.402-.099-.223-.39-.383-.655-.415-.09-.01-.18-.02-.27-.026a5.638 5.638 0 0 0-.672.008Z" fill="#fff"/></svg>